<svg width="20" height="20" viewBox="0 0 20 20" fill="none" xmlns="http://www.w3.org/2000/svg">
<path d="M11.1919 13.1249H3.66692C2.73358 13.1249 1.88358 12.6416 1.40858 11.8332C0.93358 11.0249 0.916914 10.0582 1.36691 9.2332L5.12525 2.39154C5.59192 1.54154 6.45025 1.0332 7.42525 1.0332C8.40025 1.0332 9.25858 1.54154 9.72525 2.39154L13.4919 9.2332C13.9419 10.0499 13.9252 11.0249 13.4502 11.8332C12.9752 12.6416 12.1252 13.1249 11.1919 13.1249ZM7.42525 2.29154C6.91691 2.29154 6.46692 2.55822 6.22525 2.99988L2.46691 9.84154C2.23358 10.2749 2.24191 10.7749 2.48358 11.1999C2.73358 11.6249 3.17525 11.8749 3.66692 11.8749H11.1919C11.6836 11.8749 12.1252 11.6249 12.3752 11.1999C12.6252 10.7749 12.6336 10.2749 12.3919 9.84154L8.62525 2.99988C8.38358 2.55822 7.93358 2.29154 7.42525 2.29154Z" fill="#757575" stroke="#757575" stroke-width="0.35"/>
<path d="M12.9167 18.9583C9.58333 18.9583 6.875 16.25 6.875 12.9167C6.875 12.7667 6.88333 12.6167 6.89167 12.4667C6.90833 12.1333 7.18333 11.875 7.51667 11.875H11.1917C11.6833 11.875 12.125 11.625 12.375 11.2C12.625 10.775 12.6333 10.275 12.3917 9.84166L11.325 7.90001C11.225 7.72501 11.225 7.51666 11.3083 7.33332C11.3917 7.14999 11.5583 7.025 11.75 6.98334C12.125 6.90834 12.5167 6.875 12.9167 6.875C16.25 6.875 18.9583 9.58333 18.9583 12.9167C18.9583 16.25 16.25 18.9583 12.9167 18.9583ZM8.13333 13.125C8.24167 15.675 10.35 17.7083 12.9167 17.7083C15.5583 17.7083 17.7083 15.5583 17.7083 12.9167C17.7083 10.275 15.5583 8.125 12.9167 8.125C12.9 8.125 12.8917 8.125 12.875 8.125L13.4917 9.24166C13.9417 10.0583 13.925 11.0333 13.45 11.8417C12.975 12.65 12.1333 13.1333 11.1917 13.1333H8.13333V13.125Z" fill="#757575" stroke="#757575" stroke-width="0.35"/>
</svg>
