<svg width="48" height="40" viewBox="0 0 48 40" fill="none" xmlns="http://www.w3.org/2000/svg">
<path d="M29.8334 28C30.7564 28 31.6587 27.7263 32.4261 27.2135C33.1935 26.7007 33.7917 25.9719 34.1449 25.1192C34.4981 24.2665 34.5905 23.3282 34.4104 22.4229C34.2304 21.5177 33.7859 20.6861 33.1333 20.0335C32.4806 19.3809 31.6491 18.9364 30.7439 18.7563C29.8386 18.5763 28.9003 18.6687 28.0476 19.0219C27.1949 19.3751 26.466 19.9732 25.9532 20.7407C25.4405 21.5081 25.1668 22.4104 25.1668 23.3333L20.7334 25.3633C19.9716 24.8613 19.0792 24.5936 18.1668 24.5933C16.9291 24.5933 15.7421 25.085 14.8669 25.9602C13.9918 26.8353 13.5001 28.0223 13.5001 29.26C13.5001 30.4977 13.9918 31.6847 14.8669 32.5598C15.7421 33.435 16.9291 33.9267 18.1668 33.9267C18.9185 33.927 19.6577 33.7342 20.3134 33.3667L25.2134 35.7C25.3316 36.7197 25.7826 37.6721 26.4968 38.4095C27.2109 39.1469 28.1483 39.6283 29.1637 39.7791C30.1791 39.9299 31.2159 39.7416 32.1135 39.2435C33.0111 38.7454 33.7195 37.9652 34.1288 37.0238C34.5381 36.0823 34.6256 35.0322 34.3777 34.0361C34.1297 33.0399 33.5603 32.1533 32.7575 31.5135C31.9546 30.8737 30.9633 30.5165 29.9369 30.4972C28.9105 30.4779 27.9064 30.7976 27.0801 31.4067L22.9968 29.54L27.4534 27.4867C28.1874 27.8654 29.0087 28.0425 29.8334 28ZM38.9801 9.84667C37.5544 6.57068 35.0939 3.85251 31.9756 2.10869C28.8573 0.364878 25.2532 -0.308392 21.7157 0.192054C18.1781 0.692501 14.9023 2.33906 12.39 4.87941C9.8778 7.41976 8.26781 10.7138 7.80677 14.2567C5.85195 14.7328 4.10331 15.8279 2.82149 17.3787C1.53966 18.9295 0.793285 20.8529 0.693597 22.8625C0.593909 24.872 1.14625 26.8599 2.26829 28.5299C3.39033 30.2 5.022 31.4627 6.92011 32.13C7.1621 32.2045 7.41357 32.2438 7.66677 32.2467C8.28561 32.3457 8.91844 32.1948 9.42603 31.8272C9.93363 31.4597 10.2744 30.9055 10.3734 30.2867C10.4725 29.6678 10.3216 29.035 9.95401 28.5274C9.58644 28.0198 9.03228 27.679 8.41344 27.58C7.53356 27.2624 6.76945 26.6877 6.22023 25.9304C5.67102 25.1732 5.36206 24.2683 5.33344 23.3333C5.33344 22.0957 5.8251 20.9087 6.70027 20.0335C7.57544 19.1583 8.76243 18.6667 10.0001 18.6667C10.6189 18.6667 11.2124 18.4208 11.65 17.9832C12.0876 17.5457 12.3334 16.9522 12.3334 16.3333C12.3394 13.5736 13.3234 10.9054 15.1107 8.80269C16.898 6.69996 19.3729 5.29888 22.0955 4.84837C24.8182 4.39786 27.6124 4.92708 29.9818 6.34202C32.3511 7.75696 34.1422 9.96599 35.0368 12.5767C35.1701 12.9776 35.4099 13.3348 35.7304 13.6102C36.051 13.8855 36.4403 14.0686 36.8568 14.14C38.2599 14.394 39.552 15.0704 40.5602 16.0787C41.5684 17.0871 42.2446 18.3793 42.4983 19.7825C42.7521 21.1856 42.5712 22.6328 41.98 23.9304C41.3888 25.228 40.4154 26.3141 39.1901 27.0433C38.6517 27.3528 38.2583 27.8634 38.0964 28.4629C37.9345 29.0624 38.0174 29.7016 38.3268 30.24C38.6362 30.7784 39.1468 31.1718 39.7463 31.3337C40.3458 31.4956 40.9851 31.4128 41.5234 31.1033C43.2926 30.0764 44.7607 28.6024 45.7804 26.8291C46.8002 25.0558 47.3358 23.0456 47.3334 21C47.3263 18.4896 46.5097 16.0485 45.0048 14.0392C43.5 12.0299 41.3871 10.5596 38.9801 9.84667Z" fill="#2C2C2C"/>
</svg>
