<svg width="20" height="20" viewBox="0 0 20 20" fill="none" xmlns="http://www.w3.org/2000/svg">
<path d="M17.7668 7.95842L16.1918 7.43342L16.9334 5.95008C17.0086 5.79482 17.0337 5.62005 17.0054 5.44989C16.977 5.27973 16.8966 5.12257 16.7751 5.00008L15.0001 3.22508C14.8769 3.10182 14.7183 3.02026 14.5464 2.99186C14.3745 2.96345 14.198 2.98965 14.0418 3.06675L12.5584 3.80842L12.0334 2.23342C11.978 2.06924 11.8727 1.92644 11.7323 1.82487C11.5919 1.72331 11.4234 1.66804 11.2501 1.66675H8.75008C8.57538 1.6663 8.40495 1.72077 8.26289 1.82245C8.12083 1.92414 8.01432 2.0679 7.95842 2.23342L7.43342 3.80842L5.95008 3.06675C5.79482 2.99157 5.62005 2.96642 5.44989 2.99478C5.27973 3.02314 5.12257 3.10361 5.00008 3.22508L3.22508 5.00008C3.10182 5.12322 3.02026 5.2819 2.99186 5.4538C2.96345 5.6257 2.98965 5.80218 3.06675 5.95842L3.80842 7.44175L2.23342 7.96675C2.06924 8.0222 1.92644 8.12744 1.82487 8.26784C1.72331 8.40824 1.66804 8.57681 1.66675 8.75008V11.2501C1.6663 11.4248 1.72077 11.5952 1.82245 11.7373C1.92414 11.8793 2.0679 11.9858 2.23342 12.0418L3.80842 12.5668L3.06675 14.0501C2.99157 14.2053 2.96642 14.3801 2.99478 14.5503C3.02314 14.7204 3.10361 14.8776 3.22508 15.0001L5.00008 16.7751C5.12322 16.8983 5.2819 16.9799 5.4538 17.0083C5.6257 17.0367 5.80218 17.0105 5.95842 16.9334L7.44175 16.1918L7.96675 17.7668C8.02266 17.9323 8.12917 18.076 8.27123 18.1777C8.41329 18.2794 8.58371 18.3339 8.75842 18.3334H11.2584C11.4331 18.3339 11.6035 18.2794 11.7456 18.1777C11.8877 18.076 11.9942 17.9323 12.0501 17.7668L12.5751 16.1918L14.0584 16.9334C14.2127 17.0067 14.3857 17.0308 14.5542 17.0025C14.7226 16.9742 14.8783 16.8948 15.0001 16.7751L16.7751 15.0001C16.8983 14.8769 16.9799 14.7183 17.0083 14.5464C17.0367 14.3745 17.0105 14.198 16.9334 14.0418L16.1918 12.5584L17.7668 12.0334C17.9309 11.978 18.0737 11.8727 18.1753 11.7323C18.2769 11.5919 18.3321 11.4234 18.3334 11.2501V8.75008C18.3339 8.57538 18.2794 8.40495 18.1777 8.26289C18.076 8.12083 17.9323 8.01432 17.7668 7.95842ZM16.6668 10.6501L15.6668 10.9834C15.4368 11.058 15.2258 11.1817 15.0485 11.346C14.8711 11.5103 14.7316 11.7112 14.6396 11.9347C14.5477 12.1583 14.5054 12.3992 14.5159 12.6407C14.5263 12.8823 14.5892 13.1186 14.7001 13.3334L15.1751 14.2834L14.2584 15.2001L13.3334 14.7001C13.1197 14.5936 12.8856 14.5343 12.647 14.5262C12.4084 14.518 12.1708 14.5613 11.9503 14.6529C11.7299 14.7446 11.5317 14.8825 11.3692 15.0574C11.2067 15.2324 11.0836 15.4402 11.0084 15.6668L10.6751 16.6668H9.35008L9.01675 15.6668C8.94216 15.4368 8.81844 15.2258 8.65417 15.0485C8.48989 14.8711 8.28901 14.7316 8.06543 14.6396C7.84186 14.5477 7.60096 14.5054 7.35944 14.5159C7.11792 14.5263 6.88156 14.5892 6.66675 14.7001L5.71675 15.1751L4.80008 14.2584L5.30008 13.3334C5.411 13.1186 5.47385 12.8823 5.48429 12.6407C5.49473 12.3992 5.4525 12.1583 5.36053 11.9347C5.26857 11.7112 5.12907 11.5103 4.95171 11.346C4.77434 11.1817 4.56337 11.058 4.33342 10.9834L3.33342 10.6501V9.35008L4.33342 9.01675C4.56337 8.94216 4.77434 8.81844 4.95171 8.65417C5.12907 8.48989 5.26857 8.28901 5.36053 8.06543C5.4525 7.84186 5.49473 7.60096 5.48429 7.35944C5.47385 7.11792 5.411 6.88156 5.30008 6.66675L4.82508 5.74175L5.74175 4.82508L6.66675 5.30008C6.88156 5.411 7.11792 5.47385 7.35944 5.48429C7.60096 5.49473 7.84186 5.4525 8.06543 5.36053C8.28901 5.26857 8.48989 5.12907 8.65417 4.95171C8.81844 4.77434 8.94216 4.56337 9.01675 4.33342L9.35008 3.33342H10.6501L10.9834 4.33342C11.058 4.56337 11.1817 4.77434 11.346 4.95171C11.5103 5.12907 11.7112 5.26857 11.9347 5.36053C12.1583 5.4525 12.3992 5.49473 12.6407 5.48429C12.8823 5.47385 13.1186 5.411 13.3334 5.30008L14.2834 4.82508L15.2001 5.74175L14.7001 6.66675C14.5936 6.88046 14.5343 7.11454 14.5262 7.35316C14.518 7.59178 14.5613 7.82936 14.6529 8.04982C14.7446 8.27028 14.8825 8.46847 15.0574 8.63098C15.2324 8.79349 15.4402 8.91653 15.6668 8.99175L16.6668 9.32508V10.6501ZM10.0001 6.66675C9.34081 6.66675 8.69635 6.86225 8.14818 7.22852C7.60002 7.59479 7.17278 8.11539 6.92049 8.72447C6.66819 9.33356 6.60218 10.0038 6.7308 10.6504C6.85942 11.297 7.17689 11.8909 7.64306 12.3571C8.10924 12.8233 8.70318 13.1408 9.34978 13.2694C9.99639 13.398 10.6666 13.332 11.2757 13.0797C11.8848 12.8274 12.4054 12.4001 12.7716 11.852C13.1379 11.3038 13.3334 10.6594 13.3334 10.0001C13.3334 9.11603 12.9822 8.26818 12.3571 7.64306C11.732 7.01794 10.8841 6.66675 10.0001 6.66675ZM10.0001 11.6668C9.67045 11.6668 9.34822 11.569 9.07413 11.3859C8.80005 11.2027 8.58643 10.9424 8.46028 10.6379C8.33414 10.3333 8.30113 9.99824 8.36544 9.67493C8.42975 9.35163 8.58849 9.05466 8.82157 8.82157C9.05466 8.58849 9.35163 8.42975 9.67493 8.36544C9.99824 8.30113 10.3333 8.33414 10.6379 8.46028C10.9424 8.58643 11.2027 8.80005 11.3859 9.07413C11.569 9.34822 11.6668 9.67045 11.6668 10.0001C11.6668 10.4421 11.4912 10.866 11.1786 11.1786C10.866 11.4912 10.4421 11.6668 10.0001 11.6668Z" fill="#757575"/>
</svg>
