<svg width="20" height="20" viewBox="0 0 20 20" fill="none" xmlns="http://www.w3.org/2000/svg">
<path d="M6.66659 13.7501C6.50177 13.7501 6.34065 13.799 6.20361 13.8905C6.06657 13.9821 5.95976 14.1122 5.89669 14.2645C5.83361 14.4168 5.81711 14.5843 5.84926 14.746C5.88142 14.9076 5.96079 15.0561 6.07733 15.1727C6.19387 15.2892 6.34236 15.3686 6.50401 15.4007C6.66566 15.4329 6.83322 15.4164 6.98549 15.3533C7.13776 15.2902 7.26791 15.1834 7.35948 15.0464C7.45104 14.9093 7.49992 14.7482 7.49992 14.5834C7.49992 14.3624 7.41212 14.1504 7.25584 13.9942C7.09956 13.8379 6.8876 13.7501 6.66659 13.7501ZM9.99992 1.66675C6.66659 1.66675 3.33325 2.80841 3.33325 5.00008V15.0001C3.33325 17.1917 6.66659 18.3334 9.99992 18.3334C13.3333 18.3334 16.6666 17.1917 16.6666 15.0001V5.00008C16.6666 2.80841 13.3333 1.66675 9.99992 1.66675ZM14.9999 15.0001C14.9999 15.5917 13.0999 16.6667 9.99992 16.6667C6.89992 16.6667 4.99992 15.5917 4.99992 15.0001V12.2751C6.55998 13.0167 8.27316 13.3793 9.99992 13.3334C11.7267 13.3793 13.4399 13.0167 14.9999 12.2751V15.0001ZM14.9999 10.0001C14.9999 10.5917 13.0999 11.6667 9.99992 11.6667C6.89992 11.6667 4.99992 10.5917 4.99992 10.0001V7.27508C6.55998 8.01671 8.27316 8.37934 9.99992 8.33342C11.7267 8.37934 13.4399 8.01671 14.9999 7.27508V10.0001ZM9.99992 6.66675C6.89992 6.66675 4.99992 5.59175 4.99992 5.00008C4.99992 4.40841 6.89992 3.33341 9.99992 3.33341C13.0999 3.33341 14.9999 4.40841 14.9999 5.00008C14.9999 5.59175 13.0999 6.66675 9.99992 6.66675ZM6.66659 8.75008C6.50177 8.75008 6.34065 8.79896 6.20361 8.89052C6.06657 8.98209 5.95976 9.11224 5.89669 9.26451C5.83361 9.41678 5.81711 9.58434 5.84926 9.74599C5.88142 9.90764 5.96079 10.0561 6.07733 10.1727C6.19387 10.2892 6.34236 10.3686 6.50401 10.4007C6.66566 10.4329 6.83322 10.4164 6.98549 10.3533C7.13776 10.2902 7.26791 10.1834 7.35948 10.0464C7.45104 9.90935 7.49992 9.74823 7.49992 9.58342C7.49992 9.3624 7.41212 9.15044 7.25584 8.99416C7.09956 8.83788 6.8876 8.75008 6.66659 8.75008Z" fill="#757575"/>
</svg>
