<svg width="19" height="20" viewBox="0 0 19 20" fill="none" xmlns="http://www.w3.org/2000/svg">
<path d="M17.143 7.48851C17.143 7.5565 16.61 14.2973 16.3056 17.1342C16.115 18.8751 14.9927 19.9311 13.3092 19.9611C12.0157 19.9901 10.7494 20.0001 9.50358 20.0001C8.18091 20.0001 6.88741 19.9901 5.63185 19.9611C4.00477 19.9221 2.88147 18.8451 2.70057 17.1342C2.38741 14.2873 1.86418 7.5565 1.85445 7.48851C1.84473 7.28351 1.91086 7.08852 2.04507 6.93053C2.17734 6.78453 2.36796 6.69653 2.56831 6.69653H16.4388C16.6382 6.69653 16.8191 6.78453 16.9621 6.93053C17.0953 7.08852 17.1624 7.28351 17.143 7.48851Z" fill="#4C72BA"/>
<path d="M18.5 3.97686C18.5 3.56588 18.1761 3.24389 17.7871 3.24389H14.8714C14.2781 3.24389 13.7627 2.8219 13.6304 2.22692L13.467 1.49795C13.2385 0.616978 12.4498 0 11.5647 0H7.43624C6.5415 0 5.76054 0.616978 5.52323 1.54595L5.37054 2.22792C5.2373 2.8219 4.72185 3.24389 4.12957 3.24389H1.21385C0.82386 3.24389 0.5 3.56588 0.5 3.97686V4.35685C0.5 4.75783 0.82386 5.08982 1.21385 5.08982H17.7871C18.1761 5.08982 18.5 4.75783 18.5 4.35685V3.97686Z" fill="#4C72BA"/>
</svg>
