<svg width="20" height="20" viewBox="0 0 20 20" fill="none" xmlns="http://www.w3.org/2000/svg">
<path d="M7.50009 9.99998H5.83342C5.61241 9.99998 5.40045 10.0878 5.24417 10.2441C5.08789 10.4003 5.00009 10.6123 5.00009 10.8333C5.00009 11.0543 5.08789 11.2663 5.24417 11.4226C5.40045 11.5788 5.61241 11.6666 5.83342 11.6666H7.50009C7.7211 11.6666 7.93306 11.5788 8.08934 11.4226C8.24562 11.2663 8.33342 11.0543 8.33342 10.8333C8.33342 10.6123 8.24562 10.4003 8.08934 10.2441C7.93306 10.0878 7.7211 9.99998 7.50009 9.99998ZM6.66676 8.33331H10.0001C10.2211 8.33331 10.4331 8.24551 10.5893 8.08923C10.7456 7.93295 10.8334 7.72099 10.8334 7.49998C10.8334 7.27896 10.7456 7.067 10.5893 6.91072C10.4331 6.75444 10.2211 6.66664 10.0001 6.66664H6.66676C6.44574 6.66664 6.23378 6.75444 6.0775 6.91072C5.92122 7.067 5.83342 7.27896 5.83342 7.49998C5.83342 7.72099 5.92122 7.93295 6.0775 8.08923C6.23378 8.24551 6.44574 8.33331 6.66676 8.33331ZM7.50009 13.3333H5.83342C5.61241 13.3333 5.40045 13.4211 5.24417 13.5774C5.08789 13.7337 5.00009 13.9456 5.00009 14.1666C5.00009 14.3877 5.08789 14.5996 5.24417 14.7559C5.40045 14.9122 5.61241 15 5.83342 15H7.50009C7.7211 15 7.93306 14.9122 8.08934 14.7559C8.24562 14.5996 8.33342 14.3877 8.33342 14.1666C8.33342 13.9456 8.24562 13.7337 8.08934 13.5774C7.93306 13.4211 7.7211 13.3333 7.50009 13.3333ZM17.5001 9.99998H15.0001V2.49998C15.0007 2.35313 14.9624 2.20875 14.8893 2.08143C14.8161 1.95412 14.7106 1.8484 14.5834 1.77498C14.4567 1.70184 14.313 1.66333 14.1668 1.66333C14.0205 1.66333 13.8768 1.70184 13.7501 1.77498L11.2501 3.20831L8.75009 1.77498C8.62341 1.70184 8.4797 1.66333 8.33342 1.66333C8.18714 1.66333 8.04344 1.70184 7.91676 1.77498L5.41675 3.20831L2.91675 1.77498C2.79007 1.70184 2.64637 1.66333 2.50009 1.66333C2.35381 1.66333 2.2101 1.70184 2.08342 1.77498C1.95625 1.8484 1.85074 1.95412 1.77757 2.08143C1.7044 2.20875 1.66617 2.35313 1.66675 2.49998V15.8333C1.66675 16.4964 1.93015 17.1322 2.39899 17.6011C2.86783 18.0699 3.50371 18.3333 4.16675 18.3333H15.8334C16.4965 18.3333 17.1323 18.0699 17.6012 17.6011C18.07 17.1322 18.3334 16.4964 18.3334 15.8333V10.8333C18.3334 10.6123 18.2456 10.4003 18.0893 10.2441C17.9331 10.0878 17.7211 9.99998 17.5001 9.99998ZM4.16675 16.6666C3.94574 16.6666 3.73378 16.5788 3.5775 16.4226C3.42122 16.2663 3.33342 16.0543 3.33342 15.8333V3.94164L5.00009 4.89164C5.1287 4.95882 5.27165 4.9939 5.41675 4.9939C5.56186 4.9939 5.70481 4.95882 5.83342 4.89164L8.33342 3.45831L10.8334 4.89164C10.962 4.95882 11.105 4.9939 11.2501 4.9939C11.3952 4.9939 11.5381 4.95882 11.6668 4.89164L13.3334 3.94164V15.8333C13.3357 16.1176 13.3864 16.3994 13.4834 16.6666H4.16675ZM16.6668 15.8333C16.6668 16.0543 16.579 16.2663 16.4227 16.4226C16.2664 16.5788 16.0544 16.6666 15.8334 16.6666C15.6124 16.6666 15.4004 16.5788 15.2442 16.4226C15.0879 16.2663 15.0001 16.0543 15.0001 15.8333V11.6666H16.6668V15.8333ZM11.3001 13.475C11.2536 13.4434 11.2032 13.4182 11.1501 13.4C11.1005 13.3746 11.047 13.3577 10.9918 13.35C10.8579 13.3232 10.7195 13.3297 10.5887 13.3689C10.4579 13.4081 10.3388 13.4789 10.2418 13.575C10.0895 13.7347 10.0032 13.946 10.0001 14.1666C9.99876 14.275 10.0186 14.3825 10.0584 14.4833C10.1037 14.5846 10.1657 14.6775 10.2418 14.7583C10.3228 14.8319 10.4158 14.8911 10.5168 14.9333C10.6165 14.9774 10.7244 15.0002 10.8334 15.0002C10.9425 15.0002 11.0503 14.9774 11.1501 14.9333C11.2511 14.8911 11.3441 14.8319 11.4251 14.7583C11.5023 14.6804 11.5634 14.5881 11.6049 14.4866C11.6464 14.385 11.6674 14.2763 11.6668 14.1666C11.6637 13.946 11.5774 13.7347 11.4251 13.575C11.3855 13.5391 11.3437 13.5057 11.3001 13.475ZM11.4168 10.2416C11.3194 10.1469 11.2005 10.0773 11.0701 10.0391C10.9398 10.0008 10.8021 9.99498 10.669 10.0221C10.5359 10.0492 10.4115 10.1084 10.3065 10.1946C10.2015 10.2808 10.1192 10.3914 10.0668 10.5166C10.0149 10.6429 9.99482 10.7799 10.0083 10.9158C10.0218 11.0516 10.0685 11.182 10.1442 11.2956C10.2199 11.4091 10.3224 11.5024 10.4425 11.5671C10.5627 11.6318 10.6969 11.666 10.8334 11.6666C11.0544 11.6666 11.2664 11.5788 11.4227 11.4226C11.579 11.2663 11.6668 11.0543 11.6668 10.8333C11.6654 10.7244 11.6428 10.6168 11.6001 10.5166C11.5599 10.4126 11.4973 10.3187 11.4168 10.2416Z" fill="#757575"/>
</svg>
