<svg width="46" height="46" viewBox="0 0 46 46" fill="none" xmlns="http://www.w3.org/2000/svg">
<path d="M18.8333 25.0834C19.728 26.2795 20.8694 27.2692 22.1802 27.9854C23.4911 28.7015 24.9406 29.1274 26.4305 29.2341C27.9203 29.3408 29.4157 29.1259 30.8152 28.6038C32.2147 28.0817 33.4856 27.2648 34.5416 26.2084L40.7916 19.9584C42.6891 17.9938 43.739 15.3625 43.7153 12.6313C43.6916 9.90011 42.596 7.28748 40.6647 5.35615C38.7334 3.42481 36.1207 2.3293 33.3895 2.30557C30.6583 2.28184 28.027 3.33178 26.0624 5.22926L22.4791 8.79176M27.1666 20.9168C26.2719 19.7207 25.1304 18.731 23.8196 18.0148C22.5088 17.2986 21.0593 16.8728 19.5694 16.7661C18.0795 16.6594 16.5841 16.8743 15.1846 17.3964C13.7851 17.9184 12.5143 18.7354 11.4583 19.7918L5.20826 26.0418C3.31078 28.0064 2.26084 30.6376 2.28457 33.3689C2.30831 36.1001 3.40382 38.7127 5.33515 40.644C7.26649 42.5754 9.87912 43.6709 12.6103 43.6946C15.3415 43.7183 17.9728 42.6684 19.9374 40.7709L23.4999 37.2084" stroke="#2C2C2C" stroke-width="4.5" stroke-linecap="round" stroke-linejoin="round"/>
</svg>
