<svg width="16" height="16" viewBox="0 0 16 16" fill="none" xmlns="http://www.w3.org/2000/svg">
<g clip-path="url(#clip0_989787_1305)">
<path d="M7.33325 2.99992H12.1999C12.9467 2.99992 13.32 2.99992 13.6052 3.14524C13.8561 3.27307 14.0601 3.47705 14.1879 3.72793C14.3333 4.01315 14.3333 4.38652 14.3333 5.13325V5.99992C14.3333 6.62117 14.3333 6.9318 14.2318 7.17683C14.0964 7.50353 13.8369 7.7631 13.5102 7.89842C13.2651 7.99992 12.9545 7.99992 12.3333 7.99992M8.66659 12.9999H3.79992C3.05318 12.9999 2.67981 12.9999 2.3946 12.8546C2.14372 12.7268 1.93974 12.5228 1.81191 12.2719C1.66659 11.9867 1.66659 11.6133 1.66659 10.8666V9.99992C1.66659 9.37866 1.66659 9.06804 1.76808 8.82301C1.9034 8.4963 2.16297 8.23674 2.48967 8.10141C2.7347 7.99992 3.04533 7.99992 3.66659 7.99992M6.86659 9.66659H9.13325C9.31994 9.66659 9.41328 9.66659 9.48458 9.63025C9.5473 9.5983 9.5983 9.5473 9.63025 9.48458C9.66659 9.41328 9.66659 9.31994 9.66659 9.13325V6.86659C9.66659 6.6799 9.66659 6.58656 9.63025 6.51526C9.5983 6.45253 9.5473 6.40154 9.48458 6.36958C9.41328 6.33325 9.31994 6.33325 9.13325 6.33325H6.86659C6.6799 6.33325 6.58656 6.33325 6.51526 6.36958C6.45253 6.40154 6.40154 6.45253 6.36958 6.51526C6.33325 6.58656 6.33325 6.6799 6.33325 6.86659V9.13325C6.33325 9.31994 6.33325 9.41328 6.36958 9.48458C6.40154 9.5473 6.45253 9.5983 6.51526 9.63025C6.58656 9.66659 6.6799 9.66659 6.86659 9.66659ZM11.8666 14.6666H14.1333C14.3199 14.6666 14.4133 14.6666 14.4846 14.6303C14.5473 14.5983 14.5983 14.5473 14.6303 14.4846C14.6666 14.4133 14.6666 14.3199 14.6666 14.1333V11.8666C14.6666 11.6799 14.6666 11.5866 14.6303 11.5153C14.5983 11.4525 14.5473 11.4015 14.4846 11.3696C14.4133 11.3333 14.3199 11.3333 14.1333 11.3333H11.8666C11.6799 11.3333 11.5866 11.3333 11.5153 11.3696C11.4525 11.4015 11.4015 11.4525 11.3696 11.5153C11.3333 11.5866 11.3333 11.6799 11.3333 11.8666V14.1333C11.3333 14.3199 11.3333 14.4133 11.3696 14.4846C11.4015 14.5473 11.4525 14.5983 11.5153 14.6303C11.5866 14.6666 11.6799 14.6666 11.8666 14.6666ZM1.86659 4.66659H4.13325C4.31994 4.66659 4.41328 4.66659 4.48458 4.63025C4.5473 4.5983 4.5983 4.5473 4.63025 4.48458C4.66659 4.41328 4.66659 4.31994 4.66659 4.13325V1.86659C4.66659 1.6799 4.66659 1.58656 4.63025 1.51526C4.5983 1.45253 4.5473 1.40154 4.48458 1.36958C4.41328 1.33325 4.31994 1.33325 4.13325 1.33325H1.86659C1.6799 1.33325 1.58656 1.33325 1.51526 1.36958C1.45253 1.40154 1.40154 1.45253 1.36958 1.51526C1.33325 1.58656 1.33325 1.6799 1.33325 1.86659V4.13325C1.33325 4.31994 1.33325 4.41328 1.36958 4.48458C1.40154 4.5473 1.45253 4.5983 1.51526 4.63025C1.58656 4.66659 1.6799 4.66659 1.86659 4.66659Z" stroke="#757575" stroke-width="1.25" stroke-linecap="round" stroke-linejoin="round"/>
</g>
<defs>
<clipPath id="clip0_989787_1305">
<rect width="16" height="16" fill="white"/>
</clipPath>
</defs>
</svg>
