<svg width="16" height="20" viewBox="0 0 16 20" fill="none" xmlns="http://www.w3.org/2000/svg">
<g clip-path="url(#clip0_989787_1258)">
<path d="M0.652139 10.4371C0.652139 11.0299 0.607153 11.2237 0.483441 11.3643C0.348484 11.4859 0.176038 11.5543 -0.00390625 11.5543L0.0410797 11.8925C0.318493 11.8963 0.592157 11.7975 0.802092 11.6113C0.914557 11.4707 1.00078 11.3073 1.04951 11.1325C1.09825 10.9577 1.11699 10.7753 1.0945 10.5929V8.35474H0.64839V10.4371H0.652139Z" fill="#757575"/>
<path d="M3.98886 10.1672C3.98886 10.4218 3.98886 10.646 4.0076 10.8436H3.61023L3.58398 10.4408C3.50151 10.5814 3.38155 10.6992 3.23909 10.7828C3.09664 10.8626 2.93544 10.9044 2.77424 10.9006C2.38811 10.9006 1.927 10.6878 1.927 9.8176V8.3736H2.37311V9.7264C2.37311 10.1976 2.51557 10.513 2.92044 10.513C3.00292 10.513 3.08539 10.4978 3.16412 10.4674C3.24284 10.437 3.31032 10.3876 3.3703 10.3306C3.43028 10.2698 3.47527 10.2014 3.50526 10.1216C3.53525 10.0418 3.55399 9.9582 3.55024 9.8746V8.3584H3.99635V10.1558L3.98511 10.171L3.98886 10.1672Z" fill="#757575"/>
<path d="M4.83613 9.1794C4.83613 8.864 4.83613 8.6094 4.81738 8.3738H5.21851L5.23725 8.7956C5.32722 8.6436 5.45468 8.5182 5.60839 8.4346C5.76209 8.351 5.93453 8.3092 6.11073 8.3168C6.70304 8.3168 7.1529 8.8222 7.1529 9.5708C7.1529 10.4562 6.61682 10.897 6.03575 10.897C5.8858 10.9046 5.73959 10.8704 5.60839 10.802C5.47718 10.7336 5.36096 10.631 5.27849 10.5056V11.8584H4.83613V9.1756V9.1794ZM5.27849 9.8406C5.27849 9.9014 5.28599 9.9622 5.29723 10.023C5.33472 10.175 5.42094 10.308 5.54091 10.403C5.66087 10.498 5.81082 10.5512 5.96452 10.5474C6.43688 10.5474 6.71054 10.1598 6.71054 9.5936C6.71054 9.0996 6.45187 8.6778 5.97952 8.6778C5.79208 8.693 5.61963 8.7766 5.48842 8.9134C5.35721 9.0502 5.28224 9.2288 5.27474 9.4188V9.8406H5.27849Z" fill="#757575"/>
<path d="M7.95146 8.37378L8.48754 9.83298C8.54377 9.99638 8.60376 10.1902 8.64499 10.3384C8.68998 10.1902 8.74246 10.0002 8.80244 9.82538L9.28979 8.37758H9.76214L9.09485 10.137C8.76121 10.9844 8.55877 11.4176 8.25137 11.6836C8.09766 11.828 7.90647 11.9268 7.70404 11.9762L7.59532 11.5962C7.73778 11.5468 7.86898 11.4746 7.9852 11.3758C8.1464 11.2428 8.27761 11.068 8.36383 10.8742C8.38257 10.84 8.39382 10.802 8.40132 10.7678C8.39757 10.726 8.38632 10.688 8.37133 10.65L7.46411 8.37378H7.95146Z" fill="#757575"/>
<path d="M10.9467 7.66309V8.37369H11.5878V8.71189H10.9467V10.0457C10.9467 10.3497 11.0329 10.5245 11.2804 10.5245C11.3666 10.5245 11.4566 10.5169 11.539 10.4941L11.5578 10.8323C11.4303 10.8779 11.2954 10.8969 11.1604 10.8931C11.0704 10.8969 10.9805 10.8855 10.898 10.8513C10.8155 10.8171 10.7405 10.7677 10.6768 10.7031C10.5419 10.5169 10.4781 10.2889 10.5044 10.0609V8.70809H10.1257V8.36989H10.5119V7.76949L10.9467 7.66309Z" fill="#757575"/>
<path d="M12.4124 9.68842C12.4049 9.80242 12.4199 9.92022 12.4574 10.0266C12.4949 10.133 12.5586 10.2318 12.6373 10.3154C12.716 10.3952 12.8135 10.4598 12.9222 10.4978C13.0309 10.5358 13.1434 10.5548 13.2559 10.5434C13.4845 10.5472 13.7132 10.5054 13.9232 10.4142L13.9981 10.7524C13.7395 10.8588 13.4621 10.912 13.1809 10.9044C13.0159 10.9158 12.8547 10.893 12.701 10.8322C12.5473 10.7752 12.4086 10.6802 12.2962 10.5624C12.18 10.4446 12.0937 10.304 12.0375 10.1444C11.9813 9.98862 11.9588 9.82142 11.9738 9.65802C11.9738 8.91322 12.4124 8.32422 13.1247 8.32422C13.9269 8.32422 14.1256 9.03482 14.1256 9.48702C14.1293 9.55542 14.1293 9.62762 14.1256 9.69602H12.4011L12.4124 9.68082V9.68842ZM13.7207 9.35022C13.732 9.25902 13.7282 9.16782 13.702 9.08042C13.6757 8.99302 13.6345 8.91322 13.5745 8.84102C13.5145 8.77262 13.4433 8.71562 13.3608 8.67762C13.2784 8.63962 13.1884 8.62062 13.0984 8.61682C12.9147 8.63202 12.7423 8.71182 12.6148 8.84862C12.4874 8.98542 12.4161 9.16022 12.4124 9.35022H13.717H13.7207Z" fill="#757575"/>
<path d="M14.8041 9.1412C14.8041 8.8486 14.8041 8.6016 14.7854 8.3698H15.1865V8.8524H15.2053C15.2465 8.7042 15.3327 8.5712 15.4527 8.4724C15.5727 8.3736 15.7189 8.3204 15.8726 8.309C15.9138 8.3052 15.9588 8.3052 16 8.309V8.7308C15.9475 8.7232 15.8988 8.7232 15.8463 8.7308C15.6964 8.7384 15.5502 8.7992 15.4414 8.9056C15.3327 9.012 15.2615 9.1526 15.2503 9.3084C15.239 9.3768 15.2315 9.449 15.2315 9.5174V10.8322H14.7892V9.1412H14.8041Z" fill="#757575"/>
<path d="M14.6091 1.5791C14.6241 1.8071 14.5679 2.0313 14.4554 2.2289C14.343 2.4265 14.1743 2.5823 13.9718 2.6811C13.7694 2.7799 13.5445 2.8141 13.3195 2.7837C13.0983 2.7533 12.8884 2.6545 12.7235 2.4987C12.5548 2.3467 12.4385 2.1453 12.3823 1.9249C12.3261 1.7045 12.3373 1.4727 12.4161 1.2561C12.491 1.0433 12.6297 0.857098 12.8097 0.720298C12.9896 0.583498 13.2071 0.507498 13.432 0.499898C13.5782 0.492298 13.7281 0.511298 13.8669 0.564498C14.0056 0.613898 14.133 0.689898 14.2417 0.792498C14.3504 0.891298 14.4404 1.0129 14.5042 1.1497C14.5679 1.2865 14.6054 1.4309 14.6091 1.5791Z" fill="#757575"/>
<path d="M8.01129 14.826C5.00847 14.826 2.3693 13.7316 1.00098 12.1204C1.52956 13.572 2.48551 14.826 3.73762 15.7076C4.98973 16.593 6.48176 17.068 8.00754 17.068C9.53331 17.068 11.0253 16.593 12.2775 15.7076C13.5296 14.8222 14.4855 13.572 15.0141 12.1204C13.6533 13.7354 11.0216 14.826 8.00379 14.826H8.01129Z" fill="#757575"/>
<path d="M8.01136 4.33429C11.0142 4.33429 13.6571 5.42868 15.0217 7.03989C14.4931 5.58828 13.5371 4.33429 12.285 3.45269C11.0329 2.56729 9.54088 2.09229 8.0151 2.09229C6.48933 2.09229 4.9973 2.56729 3.74519 3.45269C2.49308 4.33809 1.53713 5.58828 1.00854 7.03989C2.37312 5.42108 5.00105 4.33429 8.01885 4.33429H8.01136Z" fill="#757575"/>
<path d="M3.87623 17.9685C3.89497 18.2535 3.82749 18.5385 3.68504 18.7893C3.54258 19.0363 3.3289 19.2377 3.07398 19.3593C2.81906 19.4847 2.53415 19.5303 2.25298 19.4885C1.97182 19.4467 1.7094 19.3251 1.49947 19.1313C1.28954 18.9413 1.13958 18.6905 1.0721 18.4093C1.00462 18.1319 1.01587 17.8393 1.11334 17.5695C1.20706 17.2997 1.37951 17.0641 1.60819 16.8931C1.83686 16.7221 2.10678 16.6233 2.39169 16.6119C2.57538 16.6005 2.76282 16.6271 2.93527 16.6917C3.11147 16.7525 3.27267 16.8513 3.40762 16.9767C3.54633 17.1021 3.65879 17.2541 3.73752 17.4251C3.81625 17.5961 3.86498 17.7785 3.87248 17.9647L3.87623 17.9685Z" fill="#757575"/>
<path d="M1.34208 3.96564C1.18088 3.96944 1.01968 3.92764 0.884721 3.84024C0.746014 3.75284 0.637298 3.62744 0.573568 3.47544C0.506089 3.32724 0.487345 3.16004 0.513587 2.99664C0.539828 2.83324 0.614805 2.68504 0.723521 2.56344C0.832237 2.44184 0.978441 2.35824 1.13589 2.32024C1.29334 2.28224 1.45829 2.29364 1.61199 2.35064C1.76195 2.40764 1.8969 2.51024 1.99063 2.64324C2.08435 2.77624 2.14058 2.93584 2.14808 3.09924C2.15557 3.31964 2.0731 3.53624 1.92315 3.69964C1.77319 3.86304 1.56701 3.95804 1.34958 3.96564H1.34208Z" fill="#757575"/>
</g>
<defs>
<clipPath id="clip0_989787_1258">
<rect width="16" height="19" fill="white" transform="translate(0 0.5)"/>
</clipPath>
</defs>
</svg>
