<svg width="20" height="20" viewBox="0 0 20 20" fill="none" xmlns="http://www.w3.org/2000/svg">
<path d="M9.16675 10.8333C9.00193 10.8333 8.84081 10.8821 8.70377 10.9737C8.56673 11.0653 8.45992 11.1954 8.39685 11.3477C8.33378 11.5 8.31727 11.6675 8.34943 11.8292C8.38158 11.9908 8.46095 12.1393 8.57749 12.2558C8.69404 12.3724 8.84252 12.4518 9.00417 12.4839C9.16582 12.5161 9.33338 12.4996 9.48565 12.4365C9.63792 12.3734 9.76807 12.2666 9.85964 12.1296C9.95121 11.9925 10.0001 11.8314 10.0001 11.6666C10.0001 11.4456 9.91228 11.2336 9.756 11.0773C9.59972 10.921 9.38776 10.8333 9.16675 10.8333ZM5.83342 10.8333C5.6686 10.8333 5.50748 10.8821 5.37044 10.9737C5.2334 11.0653 5.12659 11.1954 5.06352 11.3477C5.00044 11.5 4.98394 11.6675 5.01609 11.8292C5.04825 11.9908 5.12762 12.1393 5.24416 12.2558C5.3607 12.3724 5.50919 12.4518 5.67084 12.4839C5.83249 12.5161 6.00005 12.4996 6.15232 12.4365C6.30459 12.3734 6.43474 12.2666 6.52631 12.1296C6.61787 11.9925 6.66675 11.8314 6.66675 11.6666C6.66675 11.4456 6.57895 11.2336 6.42267 11.0773C6.26639 10.921 6.05443 10.8333 5.83342 10.8333ZM18.3334 3.33325C18.3334 2.67021 18.07 2.03433 17.6012 1.56548C17.1323 1.09664 16.4965 0.833252 15.8334 0.833252H4.16675C3.50371 0.833252 2.86782 1.09664 2.39898 1.56548C1.93014 2.03433 1.66675 2.67021 1.66675 3.33325V6.66658C1.67042 7.2833 1.90192 7.87689 2.31675 8.33325C1.90192 8.78962 1.67042 9.38321 1.66675 9.99992V13.3333C1.66675 13.9963 1.93014 14.6322 2.39898 15.101C2.86782 15.5699 3.50371 15.8333 4.16675 15.8333H9.16675V17.4999H2.50008C2.27907 17.4999 2.06711 17.5877 1.91083 17.744C1.75455 17.9003 1.66675 18.1122 1.66675 18.3333C1.66675 18.5543 1.75455 18.7662 1.91083 18.9225C2.06711 19.0788 2.27907 19.1666 2.50008 19.1666H17.5001C17.7211 19.1666 17.9331 19.0788 18.0893 18.9225C18.2456 18.7662 18.3334 18.5543 18.3334 18.3333C18.3334 18.1122 18.2456 17.9003 18.0893 17.744C17.9331 17.5877 17.7211 17.4999 17.5001 17.4999H10.8334V15.8333H15.8334C16.4965 15.8333 17.1323 15.5699 17.6012 15.101C18.07 14.6322 18.3334 13.9963 18.3334 13.3333V9.99992C18.3297 9.38321 18.0982 8.78962 17.6834 8.33325C18.0982 7.87689 18.3297 7.2833 18.3334 6.66658V3.33325ZM16.6667 13.3333C16.6667 13.5543 16.579 13.7662 16.4227 13.9225C16.2664 14.0788 16.0544 14.1666 15.8334 14.1666H4.16675C3.94573 14.1666 3.73377 14.0788 3.57749 13.9225C3.42121 13.7662 3.33341 13.5543 3.33341 13.3333V9.99992C3.33341 9.7789 3.42121 9.56694 3.57749 9.41066C3.73377 9.25438 3.94573 9.16658 4.16675 9.16658H15.8334C16.0544 9.16658 16.2664 9.25438 16.4227 9.41066C16.579 9.56694 16.6667 9.7789 16.6667 9.99992V13.3333ZM16.6667 6.66658C16.6667 6.8876 16.579 7.09956 16.4227 7.25584C16.2664 7.41212 16.0544 7.49992 15.8334 7.49992H4.16675C3.94573 7.49992 3.73377 7.41212 3.57749 7.25584C3.42121 7.09956 3.33341 6.8876 3.33341 6.66658V3.33325C3.33341 3.11224 3.42121 2.90028 3.57749 2.744C3.73377 2.58772 3.94573 2.49992 4.16675 2.49992H15.8334C16.0544 2.49992 16.2664 2.58772 16.4227 2.744C16.579 2.90028 16.6667 3.11224 16.6667 3.33325V6.66658ZM9.16675 4.16658C9.00193 4.16658 8.84081 4.21546 8.70377 4.30703C8.56673 4.39859 8.45992 4.52874 8.39685 4.68102C8.33378 4.83329 8.31727 5.00084 8.34943 5.16249C8.38158 5.32414 8.46095 5.47263 8.57749 5.58917C8.69404 5.70572 8.84252 5.78508 9.00417 5.81724C9.16582 5.84939 9.33338 5.83289 9.48565 5.76982C9.63792 5.70674 9.76807 5.59993 9.85964 5.46289C9.95121 5.32585 10.0001 5.16474 10.0001 4.99992C10.0001 4.7789 9.91228 4.56694 9.756 4.41066C9.59972 4.25438 9.38776 4.16658 9.16675 4.16658ZM5.83342 4.16658C5.6686 4.16658 5.50748 4.21546 5.37044 4.30703C5.2334 4.39859 5.12659 4.52874 5.06352 4.68102C5.00044 4.83329 4.98394 5.00084 5.01609 5.16249C5.04825 5.32414 5.12762 5.47263 5.24416 5.58917C5.3607 5.70572 5.50919 5.78508 5.67084 5.81724C5.83249 5.84939 6.00005 5.83289 6.15232 5.76982C6.30459 5.70674 6.43474 5.59993 6.52631 5.46289C6.61787 5.32585 6.66675 5.16474 6.66675 4.99992C6.66675 4.7789 6.57895 4.56694 6.42267 4.41066C6.26639 4.25438 6.05443 4.16658 5.83342 4.16658Z" fill="#757575" />
</svg>
